<?xml version="1.0" encoding="UTF-8" standalone="no"?>
<!-- Created with Inkscape (http://www.inkscape.org/) -->

<svg
   width="1920mm"
   height="1080mm"
   viewBox="0 0 1920 1080"
   version="1.1"
   id="svg1"
   xml:space="preserve"
   inkscape:version="1.4.2 (ebf0e940d0, 2025-05-08)"
   sodipodi:docname="0fennec-alt.svg"
   inkscape:export-filename="adwaita-l.jpg"
   inkscape:export-xdpi="96"
   inkscape:export-ydpi="96"
   xmlns:inkscape="http://www.inkscape.org/namespaces/inkscape"
   xmlns:sodipodi="http://sodipodi.sourceforge.net/DTD/sodipodi-0.dtd"
   xmlns="http://www.w3.org/2000/svg"
   xmlns:svg="http://www.w3.org/2000/svg"><sodipodi:namedview
     id="namedview1"
     pagecolor="#505050"
     bordercolor="#eeeeee"
     borderopacity="1"
     inkscape:showpageshadow="0"
     inkscape:pageopacity="0"
     inkscape:pagecheckerboard="0"
     inkscape:deskcolor="#505050"
     inkscape:document-units="px"
     inkscape:zoom="16.263412"
     inkscape:cx="3643.7926"
     inkscape:cy="2339.3923"
     inkscape:window-width="2560"
     inkscape:window-height="1366"
     inkscape:window-x="0"
     inkscape:window-y="0"
     inkscape:window-maximized="1"
     inkscape:current-layer="layer1" /><defs
     id="defs1"><inkscape:perspective
       sodipodi:type="inkscape:persp3d"
       inkscape:vp_x="0 : 148.5 : 1"
       inkscape:vp_y="0 : 1000 : 0"
       inkscape:vp_z="130.34882 : 152.14417 : 1"
       inkscape:persp3d-origin="105 : 99 : 1"
       id="perspective1" /><rect
       x="80.671879"
       y="468.29042"
       width="105.26696"
       height="55.092991"
       id="rect1-6" /></defs><g
     inkscape:label="Layer 1"
     inkscape:groupmode="layer"
     id="layer1"
     transform="translate(-0.52059597,-0.52059597)"><rect
       style="fill:#1a1a1a;stroke-width:0.264583"
       id="rect1"
       width="1923.0815"
       height="1083.8807"
       x="-1.5617881"
       y="-0.52059484" /><g
       id="g1"
       transform="matrix(1.5084813,0,0,1.5084813,809.90852,378.98123)"
       style="fill:#1a1a1a"><g
         inkscape:label="Layer 1"
         id="layer1-2"
         style="fill:#1a1a1a"><ellipse
           style="fill:#1a1a1a;fill-opacity:1;stroke-width:0.264583"
           id="path7"
           cx="105.46552"
           cy="109.69885"
           rx="79.144997"
           ry="81.906021" /></g><g
         inkscape:label="Layer 1"
         id="g85"
         style="display:inline;fill:#ffffff;fill-opacity:1"
         transform="matrix(1.1160562,0,0,1.1160562,-16.337644,-21.286771)"><g
           id="g99"
           style="fill:#ffffff;fill-opacity:1"><g
             id="g77"
             style="fill:#ffffff;fill-opacity:1"><path
               style="fill:#ffffff;fill-opacity:1;stroke-width:0.264583"
               d="m 87.364822,120.87492 c 3.836176,7.07312 18.601688,26.83717 19.717598,7.87401 0.0497,-10.02409 -0.85762,-9.44118 -7.873961,-15.45519 C 89.312293,104.2147 74.987569,91.493392 68.94882,86.125136 44.18932,71.522225 63.740455,145.32594 84.566698,142.34948 51.060244,105.48625 61.034864,67.347 87.364822,120.87492 Z"
               id="path71"
               sodipodi:nodetypes="cccccc" /><path
               style="fill:#ffffff;fill-opacity:1;stroke-width:0.264583"
               d="m 95.516882,154.71207 -12.246638,3.27446 11.729098,-4.39923 z"
               id="path72" /><path
               style="fill:#ffffff;fill-opacity:1;stroke-width:0.264583"
               d="m 95.160186,154.02276 -12.648011,-0.85443 12.521294,-0.37719 z"
               id="path73" /><path
               style="fill:#ffffff;fill-opacity:1;stroke-width:0.264583"
               d="m 95.071879,153.14579 -11.946776,-4.23992 12.157525,3.01986 z"
               id="path74" /><path
               style="fill:#ffffff;fill-opacity:1;stroke-width:0.264583"
               d="m 104.57859,147.92813 c -3.63865,-8.96971 -5.275827,-1.19057 -10.077201,-7.59241 -1.081836,8.83493 6.287821,13.05903 10.077201,7.59241 z"
               id="path75"
               sodipodi:nodetypes="ccc" /><path
               style="fill:#ffffff;fill-opacity:1;stroke-width:0.264583"
               d="m 108.95872,150.84557 v 7.85482 c -4.60145,-0.81759 -9.724129,-0.69468 -14.552081,0 1.615325,-2.03163 7.721021,-2.3812 14.552081,-7.85482 z"
               id="path76"
               sodipodi:nodetypes="cccc" /><path
               style="fill:#ffffff;fill-opacity:1;stroke-width:0.264583"
               d="m 108.98766,162.81383 -0.0133,-3.8243 c -5.66586,-0.41981 -9.177372,-0.37168 -14.484879,-0.14032 z"
               id="path77"
               sodipodi:nodetypes="cccc" /></g><g
             id="g84"
             transform="matrix(-1,0,0,1,251.28937,-47.804895)"
             style="fill:#ffffff;fill-opacity:1"><path
               style="fill:#ffffff;fill-opacity:1;stroke-width:0.264583"
               d="m 120.75128,168.6918 c 3.83618,7.07312 18.60169,26.83717 19.7176,7.87401 0.0497,-10.02409 -0.85762,-9.44118 -7.87396,-15.45519 -9.89617,-9.07904 -24.22089,-21.80035 -30.25964,-27.1686 -24.759502,-14.60291 -5.208367,59.2008 15.61788,56.22434 -33.506458,-36.86323 -23.531838,-75.00248 2.79812,-21.47456 z"
               id="path78"
               sodipodi:nodetypes="cccccc" /><path
               style="fill:#ffffff;fill-opacity:1;stroke-width:0.264583"
               d="m 128.90334,202.52895 -12.24664,3.27446 11.7291,-4.39923 z"
               id="path79" /><path
               style="fill:#ffffff;fill-opacity:1;stroke-width:0.264583"
               d="m 128.54664,201.83964 -12.64801,-0.85443 12.5213,-0.37719 z"
               id="path80" /><path
               style="fill:#ffffff;fill-opacity:1;stroke-width:0.264583"
               d="m 128.45834,200.96267 -11.94678,-4.23992 12.15753,3.01986 z"
               id="path81" /><path
               style="fill:#ffffff;fill-opacity:1;stroke-width:0.264583"
               d="m 137.96505,195.74501 c -3.63865,-8.96971 -5.27583,-1.19057 -10.0772,-7.59241 -1.08184,8.83493 6.28782,13.05903 10.0772,7.59241 z"
               id="path82"
               sodipodi:nodetypes="ccc" /><path
               style="fill:#ffffff;fill-opacity:1;stroke-width:0.264583"
               d="m 142.35754,206.51727 c -4.60145,-0.81759 -9.73653,-0.69468 -14.56448,0 1.61532,-2.03163 7.70604,-2.39546 14.5371,-7.86908 z"
               id="path83"
               sodipodi:nodetypes="cccc" /><path
               style="fill:#ffffff;fill-opacity:1;stroke-width:0.264583"
               d="m 142.37412,210.63071 0.0115,-3.8243 c -5.66586,-0.41981 -9.20218,-0.37168 -14.50969,-0.14032 z"
               id="path84"
               sodipodi:nodetypes="cccc" /></g></g><path
           style="fill:#ffffff;fill-opacity:1;stroke-width:0.264583"
           d="m 108.94407,150.92209 0.0351,2.59585"
           id="path1" /><rect
           style="fill:#ffffff;fill-opacity:1;stroke-width:0.264583"
           id="rect2"
           width="0.046772167"
           height="7.7407932"
           x="108.93237"
           y="150.85193" /></g></g><ellipse
       style="fill:#333333;stroke-width:0.875009"
       id="path2-0-2"
       cx="1870.8433"
       cy="-47.02496"
       rx="650.74182"
       ry="577.58508" /><ellipse
       style="fill:#4d4d4d;stroke-width:0.724087"
       id="path2-0"
       cx="1852.5486"
       cy="-43.141674"
       rx="538.47968"
       ry="477.94519" /><ellipse
       style="fill:#666666;stroke-width:0.65026"
       id="path2-0-22"
       cx="1892.2914"
       cy="-80.587761"
       rx="483.56543"
       ry="429.20377" /><ellipse
       style="fill:#333333;stroke-width:0.875009"
       id="path2-0-2-6"
       cx="3.6079497"
       cy="-1018.9382"
       rx="650.74182"
       ry="577.58508"
       transform="scale(-1)" /><ellipse
       style="fill:#4d4d4d;stroke-width:0.724087"
       id="path2-0-1"
       cx="-14.686728"
       cy="-1015.0549"
       rx="538.47968"
       ry="477.94519"
       transform="scale(-1)" /><ellipse
       style="fill:#666666;stroke-width:0.65026"
       id="path2-0-22-2"
       cx="25.05607"
       cy="-1052.501"
       rx="483.56543"
       ry="429.20377"
       transform="scale(-1)" /><rect
       style="fill:#ffffff;stroke-width:0.459073"
       id="rect3"
       width="0.55311143"
       height="12.754587"
       x="968.40613"
       y="601.2395" /><rect
       style="fill:#ffffff;stroke-width:0.632524"
       id="rect4"
       width="0.65072292"
       height="6.1332564"
       x="968.27594"
       y="614.6286" /></g></svg>
